<?xml version="1.0" encoding="utf-8"?>
<svg xmlns="http://www.w3.org/2000/svg" xmlns:xlink="http://www.w3.org/1999/xlink" style="margin: auto; background: rgba(0, 0, 0, 0) none repeat scroll 0% 0%; display: block; shape-rendering: auto;" width="200px" height="200px" viewBox="0 0 100 100" preserveAspectRatio="xMidYMid">
<g transform="rotate(0 50 50)">
  <rect x="47" y="24" rx="3" ry="6" width="6" height="12" fill="#ffff34">
    <animate attributeName="opacity" values="1;0" keyTimes="0;1" dur="0.8064516129032259s" begin="-0.739247311827957s" repeatCount="indefinite"></animate>
  </rect>
</g><g transform="rotate(30 50 50)">
  <rect x="47" y="24" rx="3" ry="6" width="6" height="12" fill="#ffff34">
    <animate attributeName="opacity" values="1;0" keyTimes="0;1" dur="0.8064516129032259s" begin="-0.6720430107526882s" repeatCount="indefinite"></animate>
  </rect>
</g><g transform="rotate(60 50 50)">
  <rect x="47" y="24" rx="3" ry="6" width="6" height="12" fill="#ffff34">
    <animate attributeName="opacity" values="1;0" keyTimes="0;1" dur="0.8064516129032259s" begin="-0.6048387096774194s" repeatCount="indefinite"></animate>
  </rect>
</g><g transform="rotate(90 50 50)">
  <rect x="47" y="24" rx="3" ry="6" width="6" height="12" fill="#ffff34">
    <animate attributeName="opacity" values="1;0" keyTimes="0;1" dur="0.8064516129032259s" begin="-0.5376344086021506s" repeatCount="indefinite"></animate>
  </rect>
</g><g transform="rotate(120 50 50)">
  <rect x="47" y="24" rx="3" ry="6" width="6" height="12" fill="#ffff34">
    <animate attributeName="opacity" values="1;0" keyTimes="0;1" dur="0.8064516129032259s" begin="-0.47043010752688175s" repeatCount="indefinite"></animate>
  </rect>
</g><g transform="rotate(150 50 50)">
  <rect x="47" y="24" rx="3" ry="6" width="6" height="12" fill="#ffff34">
    <animate attributeName="opacity" values="1;0" keyTimes="0;1" dur="0.8064516129032259s" begin="-0.40322580645161293s" repeatCount="indefinite"></animate>
  </rect>
</g><g transform="rotate(180 50 50)">
  <rect x="47" y="24" rx="3" ry="6" width="6" height="12" fill="#ffff34">
    <animate attributeName="opacity" values="1;0" keyTimes="0;1" dur="0.8064516129032259s" begin="-0.3360215053763441s" repeatCount="indefinite"></animate>
  </rect>
</g><g transform="rotate(210 50 50)">
  <rect x="47" y="24" rx="3" ry="6" width="6" height="12" fill="#ffff34">
    <animate attributeName="opacity" values="1;0" keyTimes="0;1" dur="0.8064516129032259s" begin="-0.2688172043010753s" repeatCount="indefinite"></animate>
  </rect>
</g><g transform="rotate(240 50 50)">
  <rect x="47" y="24" rx="3" ry="6" width="6" height="12" fill="#ffff34">
    <animate attributeName="opacity" values="1;0" keyTimes="0;1" dur="0.8064516129032259s" begin="-0.20161290322580647s" repeatCount="indefinite"></animate>
  </rect>
</g><g transform="rotate(270 50 50)">
  <rect x="47" y="24" rx="3" ry="6" width="6" height="12" fill="#ffff34">
    <animate attributeName="opacity" values="1;0" keyTimes="0;1" dur="0.8064516129032259s" begin="-0.13440860215053765s" repeatCount="indefinite"></animate>
  </rect>
</g><g transform="rotate(300 50 50)">
  <rect x="47" y="24" rx="3" ry="6" width="6" height="12" fill="#ffff34">
    <animate attributeName="opacity" values="1;0" keyTimes="0;1" dur="0.8064516129032259s" begin="-0.06720430107526883s" repeatCount="indefinite"></animate>
  </rect>
</g><g transform="rotate(330 50 50)">
  <rect x="47" y="24" rx="3" ry="6" width="6" height="12" fill="#ffff34">
    <animate attributeName="opacity" values="1;0" keyTimes="0;1" dur="0.8064516129032259s" begin="0s" repeatCount="indefinite"></animate>
  </rect>
</g>
<!-- [ldio] generated by https://loading.io/ --></svg>